<svg width="112" height="41" viewBox="0 0 112 41" fill="none" xmlns="http://www.w3.org/2000/svg">
<g clip-path="url(#clip0_1_33)">
<path d="M74.6497 40.8468C70.5254 40.8468 66.43 40.8468 62.3057 40.8468C62.2117 40.5915 62.313 40.4675 62.653 40.4311C64.3823 40.2341 65.2434 39.4099 65.3157 37.652C65.3953 35.6899 65.3374 33.7205 65.3374 31.7949C65.3447 31.7803 65.3013 31.8241 65.2868 31.8751C64.1219 35.8212 61.4519 38.2793 57.7039 39.6725C54.3466 40.9198 50.8662 41.1605 47.3425 40.8906C44.7594 40.6936 42.2848 40.0299 40.049 38.6586C36.3444 36.3828 34.3835 33.0859 34.3907 28.6803C34.4052 20.8683 34.4486 13.0491 34.4559 5.23715C34.4559 4.29621 34.3835 3.34069 34.1881 2.42163C33.9711 1.39317 33.2475 0.78776 32.1911 0.59082C31.8076 0.517879 31.6123 0.612702 31.4169 0.94823C29.5791 4.15033 27.7267 7.33055 25.8817 10.5326C20.4188 20.0295 14.9559 29.5264 9.50025 39.0233C9.26147 39.4464 9.0227 39.8694 8.77669 40.3144C8.87075 40.3581 8.91417 40.3946 8.96481 40.3946C12.0544 40.3727 15.144 40.3654 18.2336 40.3289C24.0945 40.2633 28.6312 37.6958 32.0102 32.9328C32.2418 32.6045 32.4878 32.2909 32.7266 31.9699C32.7338 31.9553 32.7555 31.948 32.7917 31.9189C33.1245 31.9335 33.2186 32.1012 33.1535 32.4513C32.6325 35.1866 32.1188 37.9219 31.6195 40.6572C31.5544 41.0292 31.3228 41.0073 31.0696 41.0073C29.1522 41.0073 27.242 40.9927 25.3245 40.9854C18.7112 40.9635 12.0978 40.9416 5.48449 40.9271C4.29061 40.9271 3.09674 40.9125 1.9101 40.9052C1.77262 40.9052 1.63514 40.8833 1.38913 40.8614C9.09506 27.433 16.7865 14.0776 24.5358 0.619996C23.5301 0.619996 22.6546 0.605408 21.7791 0.619996C18.9789 0.671055 16.1787 0.656467 13.3858 0.816936C8.58133 1.09411 4.80434 3.36257 1.85945 7.13361C1.36019 7.77548 0.860932 8.42466 0.332733 9.10301C0.0505438 9.08842 -0.0507547 8.97901 0.0143658 8.62889C0.53533 5.97385 1.02012 3.31151 1.51937 0.641879C1.55555 0.444939 1.59173 0.247999 1.63514 0C2.73495 0 3.82753 0 4.92734 0C11.4177 0.0218822 17.9008 0.0364704 24.3911 0.0875289C28.0017 0.116705 31.6123 0.255293 35.2301 0.262587C37.8277 0.269881 40.4325 0.16047 43.0301 0.094823C43.1892 0.094823 43.3484 0.094823 43.5076 0.094823L43.6017 0.240705C43.4642 0.35741 43.334 0.547056 43.1748 0.576232C41.5323 0.889877 41.062 1.27646 40.787 2.92492C40.6206 3.9388 40.5989 4.98915 40.5917 6.02491C40.5482 10.8536 40.5265 15.6823 40.5338 20.5036C40.5338 20.9121 40.6713 21.3789 40.8956 21.7218C42.9794 24.9384 47.7911 24.9384 49.9473 21.7218C51.0109 20.1462 51.5102 18.3519 51.6477 16.4846C51.7779 14.7851 51.7562 13.0637 51.7345 11.3569C51.7128 9.31453 51.7345 7.27949 52.3061 5.2955C53.1744 2.30493 55.2293 0.568938 58.3117 0.299057C59.8601 0.167764 61.4157 0.0802348 62.9642 0.0729408C68.9842 0.0510585 74.997 0.0364704 81.017 0.0875289C83.3831 0.109411 85.7419 0.371998 88.0066 1.15976C91.9138 2.52375 93.9688 5.36115 94.0773 9.53336C94.1207 11.1672 93.9977 12.7719 93.1945 14.2526C92.2394 16.0178 90.7489 17.1411 88.8676 17.6517C86.7838 18.2206 84.6493 18.6218 82.5365 19.0886C81.7985 19.2491 81.0532 19.3877 80.1994 19.5627C80.3875 19.6357 80.4743 19.6867 80.5612 19.694C83.26 19.9785 85.4235 21.3352 87.1383 23.3556C88.3033 24.7269 89.3669 26.2222 90.2931 27.7758C92.3407 31.1968 94.5042 34.5302 97.0222 37.6155C97.7457 38.4981 98.5995 39.264 99.3882 40.0882C99.6487 40.3581 99.9381 40.3581 100.278 40.2341C101.212 39.8913 101.704 39.1765 101.848 38.2428C101.986 37.3675 102.058 36.4704 102.058 35.5805C102.073 25.4344 102.073 15.2884 102.058 5.14232C102.058 4.41292 102.022 3.68351 101.899 2.96869C101.639 1.43693 100.9 0.773172 99.3738 0.59082C99.0916 0.55435 98.8021 0.55435 98.9903 0.0583526C103.057 0.452233 107.152 0.43035 111.24 0.0583526C111.276 0.116705 111.32 0.167764 111.356 0.226116C111.233 0.342822 111.117 0.459527 110.987 0.568938C110.951 0.598114 110.886 0.583526 110.828 0.59082C109.2 0.78776 108.418 1.58281 108.266 3.23128C108.201 3.91692 108.165 4.60986 108.165 5.30279C108.165 15.2519 108.165 25.1937 108.165 35.1429C108.165 35.8358 108.201 36.5287 108.266 37.2144C108.476 39.3953 109.395 40.3071 111.58 40.4967C111.877 40.5259 112.087 40.5551 111.949 40.9416C111.537 40.9416 111.124 40.9416 110.712 40.9416C106.573 40.9198 102.442 40.8833 98.3029 40.8833C96.0237 40.8833 93.7517 40.9343 91.4725 40.9343C91.2843 40.9343 91.0166 40.7447 90.9153 40.5624C88.7808 37.032 86.6825 33.4871 84.548 29.9568C83.4192 28.0968 82.2615 26.2441 81.0532 24.4352C80.3152 23.3337 79.3311 22.4803 78.0721 21.9843C76.2994 21.2841 74.7582 21.6561 73.5571 23.1441C72.2475 24.7707 71.6324 26.6963 71.5456 28.746C71.4443 31.2405 71.5094 33.7351 71.5311 36.2297C71.5311 36.9007 71.6035 37.5791 71.7337 38.2355C72.0159 39.636 72.7757 40.2925 74.1866 40.4311C74.4833 40.4602 74.8016 40.4529 74.6424 40.8541L74.6497 40.8468ZM40.6061 22.1667C40.6061 25.0624 40.4397 27.7467 40.6423 30.409C40.9969 35.1356 44.564 39.0817 49.1441 39.9715C53.3842 40.7958 57.277 39.7527 60.8369 37.3748C62.9063 35.989 64.281 34.0415 64.802 31.5906C65.0914 30.2485 65.2506 28.8554 65.2579 27.4841C65.323 19.942 65.3302 12.4072 65.3302 4.86515C65.3302 4.11386 65.2289 3.33339 65.0335 2.60398C64.7007 1.37129 63.8541 0.671055 62.5879 0.663761C61.0757 0.649173 59.5417 0.656467 58.0512 0.875289C55.1931 1.29835 53.3553 2.99057 52.6896 5.85714C52.487 6.71784 52.3423 7.61501 52.3134 8.4976C52.2555 10.4451 52.3278 12.3926 52.2844 14.3402C52.241 16.419 52.0239 18.4832 51.2135 20.4307C50.5985 21.9041 49.7302 23.2025 48.3193 23.9975C45.9894 25.3031 42.6466 24.654 40.8883 22.6116C40.8015 22.5095 40.7436 22.3782 40.6061 22.1667ZM71.5528 25.4636C71.5528 25.4636 71.5963 25.4782 71.618 25.4855C71.6903 25.325 71.7627 25.1646 71.8206 24.9968C72.4501 23.2973 73.463 21.9041 74.8812 20.7808C76.7046 19.3366 78.8102 18.5124 80.9736 17.7684C82.2181 17.3453 83.4554 16.8566 84.5986 16.222C86.3569 15.2446 87.5146 13.7275 87.7895 11.6705C87.9125 10.7369 87.9921 9.78135 87.9487 8.84771C87.8185 5.89361 86.6174 3.51574 84.0126 1.98399C82.7391 1.2327 81.3426 0.809642 79.8955 0.75129C77.1749 0.634585 74.4471 0.649173 71.7193 0.619996C71.6686 0.619996 71.618 0.649173 71.5456 0.678349C71.5456 8.94254 71.5456 17.2067 71.5456 25.4636H71.5528Z" fill="#542C17"/>
</g>
<defs>
<clipPath id="clip0_1_33">
<rect width="112" height="41" fill="white"/>
</clipPath>
</defs>
</svg>
