<svg width="115" height="42" viewBox="0 0 115 42" fill="none" xmlns="http://www.w3.org/2000/svg">
<path d="M76.4699 41.8431C72.245 41.8431 68.0497 41.8431 63.8249 41.8431C63.7285 41.5816 63.8323 41.4545 64.1806 41.4172C65.9521 41.2154 66.8342 40.3711 66.9083 38.5704C66.9898 36.5604 66.9305 34.543 66.9305 32.5704C66.9379 32.5554 66.8935 32.6003 66.8786 32.6526C65.6853 36.6949 62.9502 39.213 59.1108 40.6401C55.6716 41.9178 52.1063 42.1644 48.4967 41.8879C45.8505 41.6862 43.3156 41.0062 41.0253 39.6015C37.2303 37.2702 35.2216 33.8929 35.229 29.3798C35.2438 21.3773 35.2883 13.3674 35.2957 5.36488C35.2957 4.401 35.2216 3.42217 35.0215 2.4807C34.7991 1.42715 34.0579 0.806974 32.9757 0.60523C32.5829 0.530511 32.3828 0.627646 32.1826 0.971357C30.3 4.25156 28.4025 7.50934 26.5124 10.7895C20.9163 20.5181 15.3201 30.2466 9.73144 39.9751C9.48684 40.4085 9.24224 40.8418 8.99023 41.2976C9.08658 41.3425 9.13106 41.3798 9.18294 41.3798C12.3479 41.3574 15.5129 41.3499 18.6778 41.3126C24.6816 41.2453 29.329 38.6152 32.7904 33.736C33.0276 33.3997 33.2796 33.0785 33.5242 32.7497C33.5316 32.7347 33.5539 32.7273 33.5909 32.6974C33.9319 32.7123 34.0283 32.8842 33.9616 33.2428C33.4279 36.0448 32.9016 38.8468 32.3902 41.6488C32.3235 42.0299 32.0863 42.0075 31.8269 42.0075C29.8627 42.0075 27.9059 41.9925 25.9417 41.9851C19.167 41.9626 12.3924 41.9402 5.61773 41.9253C4.39473 41.9253 3.17174 41.9103 1.95616 41.9029C1.81533 41.9029 1.6745 41.8804 1.42249 41.858C9.31636 28.1021 17.1954 14.4209 25.1338 0.635118C24.1035 0.635118 23.2066 0.620174 22.3097 0.635118C19.4413 0.687422 16.5728 0.672478 13.7117 0.836862C8.7901 1.1208 4.92099 3.44458 1.90427 7.3076C1.39284 7.96513 0.881403 8.63014 0.34032 9.32503C0.0512489 9.31009 -0.0525204 9.19801 0.0141884 8.83935C0.547859 6.11955 1.04447 3.39228 1.5559 0.657534C1.59296 0.455791 1.63002 0.254047 1.6745 0C2.80113 0 3.92036 0 5.047 0C11.6956 0.0224159 18.3369 0.0373599 24.9855 0.0896638C28.6841 0.119552 32.3828 0.261519 36.0888 0.268991C38.7498 0.276463 41.4181 0.164384 44.0791 0.0971357C44.2421 0.0971357 44.4052 0.0971357 44.5682 0.0971357L44.6646 0.246575C44.5238 0.366127 44.3904 0.560399 44.2273 0.590286C42.5447 0.911582 42.063 1.3076 41.7813 2.99626C41.6108 4.03487 41.5886 5.11083 41.5812 6.17186C41.5367 11.1183 41.5145 16.0648 41.5219 21.0037C41.5219 21.4222 41.6627 21.9004 41.8925 22.2516C44.0272 25.5467 48.9562 25.5467 51.165 22.2516C52.2546 20.6376 52.766 18.7995 52.9068 16.8867C53.0403 15.1457 53.018 13.3823 52.9958 11.6339C52.9736 9.54172 52.9958 7.45704 53.5813 5.42466C54.4708 2.36115 56.5758 0.582814 59.7334 0.306351C61.3196 0.171856 62.9132 0.0821918 64.4994 0.0747198C70.6662 0.0523039 76.8257 0.0373599 82.9925 0.0896638C85.4163 0.11208 87.8326 0.381071 90.1526 1.18804C94.1551 2.5853 96.2602 5.49191 96.3713 9.76588C96.4158 11.4396 96.2898 13.0834 95.4671 14.6002C94.4887 16.4085 92.9618 17.5592 91.0346 18.0822C88.8999 18.665 86.7134 19.076 84.549 19.5542C83.793 19.7186 83.0296 19.8605 82.1549 20.0399C82.3477 20.1146 82.4366 20.1669 82.5256 20.1743C85.2903 20.4658 87.5065 21.8555 89.2631 23.9253C90.4565 25.33 91.5461 26.8618 92.4948 28.4533C94.5924 31.9577 96.8086 35.3724 99.3881 38.533C100.129 39.4371 101.004 40.2217 101.812 41.066C102.079 41.3425 102.375 41.3425 102.723 41.2154C103.68 40.8643 104.184 40.132 104.332 39.1756C104.473 38.279 104.547 37.3599 104.547 36.4483C104.562 26.0548 104.562 15.6613 104.547 5.26775C104.547 4.52055 104.51 3.77335 104.384 3.0411C104.117 1.47198 103.361 0.79203 101.797 0.60523C101.508 0.56787 101.211 0.56787 101.404 0.0597758C105.57 0.463263 109.765 0.440847 113.953 0.0597758C113.99 0.119552 114.034 0.171856 114.071 0.231631C113.945 0.351183 113.827 0.470735 113.693 0.582814C113.656 0.612702 113.59 0.597758 113.53 0.60523C111.863 0.806974 111.062 1.62142 110.906 3.31009C110.84 4.01245 110.803 4.72229 110.803 5.43213C110.803 15.6239 110.803 25.8082 110.803 36C110.803 36.7098 110.84 37.4197 110.906 38.122C111.121 40.3562 112.063 41.2902 114.301 41.4844C114.605 41.5143 114.82 41.5442 114.679 41.9402C114.257 41.9402 113.834 41.9402 113.412 41.9402C109.172 41.9178 104.94 41.8804 100.7 41.8804C98.3652 41.8804 96.0378 41.9328 93.703 41.9328C93.5103 41.9328 93.236 41.7385 93.1322 41.5517C90.9457 37.9352 88.7962 34.3039 86.6096 30.6874C85.4533 28.7821 84.2674 26.8842 83.0296 25.0311C82.2735 23.9029 81.2655 23.0286 79.9758 22.5205C78.1598 21.8032 76.5811 22.1843 75.3507 23.7086C74.0091 25.3748 73.379 27.3474 73.2901 29.4471C73.1863 32.0025 73.253 34.5579 73.2753 37.1133C73.2753 37.8007 73.3494 38.4956 73.4828 39.1681C73.7719 40.6027 74.5501 41.2752 75.9955 41.4172C76.2994 41.4471 76.6255 41.4396 76.4625 41.8506L76.4699 41.8431ZM41.596 22.7073C41.596 25.6737 41.4255 28.4234 41.6331 31.1507C41.9963 35.9925 45.6504 40.0349 50.3423 40.9464C54.6857 41.7908 58.6735 40.7223 62.3202 38.2864C64.4401 36.8667 65.8484 34.8717 66.382 32.3611C66.6785 30.9863 66.8416 29.5592 66.849 28.1544C66.9157 20.4284 66.9231 12.7098 66.9231 4.98381C66.9231 4.2142 66.8193 3.41469 66.6192 2.6675C66.2783 1.40473 65.411 0.687422 64.1139 0.67995C62.5648 0.665006 60.9934 0.672478 59.4665 0.896638C56.5388 1.33001 54.6561 3.06351 53.9742 6C53.7666 6.88169 53.6184 7.80075 53.5888 8.70486C53.5295 10.6999 53.6036 12.6949 53.5591 14.6899C53.5146 16.8194 53.2923 18.934 52.4621 20.929C51.8321 22.4384 50.9426 23.7684 49.4973 24.5828C47.1106 25.9203 43.6862 25.2553 41.8851 23.1631C41.7961 23.0585 41.7368 22.924 41.596 22.7073ZM73.2975 26.0847C73.2975 26.0847 73.342 26.0996 73.3642 26.1071C73.4383 25.9427 73.5125 25.7783 73.5717 25.6065C74.2166 23.8655 75.2543 22.4384 76.7071 21.2877C78.5749 19.8082 80.7318 18.9639 82.948 18.2017C84.2229 17.7684 85.4904 17.2677 86.6615 16.6177C88.4626 15.6164 89.6486 14.0623 89.9302 11.9552C90.0562 10.9988 90.1378 10.0199 90.0933 9.06351C89.9599 6.03736 88.7295 3.60149 86.0611 2.03238C84.7566 1.26276 83.3261 0.82939 81.8436 0.769614C79.0567 0.650062 76.2623 0.665006 73.468 0.635118C73.4161 0.635118 73.3642 0.665006 73.2901 0.694894C73.2901 9.16065 73.2901 17.6264 73.2901 26.0847H73.2975Z" fill="white"/>
</svg>
