<svg width="112" height="41" viewBox="0 0 112 41" fill="none" xmlns="http://www.w3.org/2000/svg">
<path d="M74.6494 40.8468C70.5251 40.8468 66.4298 40.8468 62.3055 40.8468C62.2114 40.5915 62.3127 40.4675 62.6528 40.4311C64.3821 40.2341 65.2431 39.4099 65.3155 37.652C65.3951 35.6899 65.3372 33.7205 65.3372 31.7949C65.3444 31.7803 65.301 31.8241 65.2866 31.8751C64.1216 35.8212 61.4517 38.2793 57.7036 39.6725C54.3463 40.9198 50.866 41.1605 47.3422 40.8906C44.7591 40.6936 42.2845 40.0299 40.0487 38.6586C36.3441 36.3828 34.3833 33.0859 34.3905 28.6803C34.405 20.8683 34.4484 13.0491 34.4556 5.23715C34.4556 4.29621 34.3833 3.34069 34.1879 2.42163C33.9708 1.39317 33.2473 0.78776 32.1909 0.59082C31.8074 0.517879 31.612 0.612702 31.4167 0.94823C29.5788 4.15033 27.7265 7.33055 25.8814 10.5326C20.4185 20.0295 14.9557 29.5264 9.5 39.0233C9.26123 39.4464 9.02246 39.8694 8.77644 40.3144C8.87051 40.3581 8.91392 40.3946 8.96457 40.3946C12.0542 40.3727 15.1438 40.3654 18.2334 40.3289C24.0942 40.2633 28.631 37.6958 32.01 32.9328C32.2415 32.6045 32.4875 32.2909 32.7263 31.9699C32.7335 31.9553 32.7553 31.948 32.7914 31.9189C33.1243 31.9335 33.2183 32.1012 33.1532 32.4513C32.6322 35.1866 32.1185 37.9219 31.6193 40.6572C31.5541 41.0292 31.3226 41.0073 31.0694 41.0073C29.1519 41.0073 27.2417 40.9927 25.3243 40.9854C18.7109 40.9635 12.0976 40.9416 5.48424 40.9271C4.29037 40.9271 3.09649 40.9125 1.90985 40.9052C1.77237 40.9052 1.6349 40.8833 1.38889 40.8614C9.09481 27.433 16.7863 14.0776 24.5356 0.619996C23.5299 0.619996 22.6543 0.605408 21.7788 0.619996C18.9787 0.671055 16.1785 0.656467 13.3855 0.816936C8.58108 1.09411 4.8041 3.36257 1.8592 7.13361C1.35994 7.77548 0.860688 8.42466 0.332488 9.10301C0.0502997 9.08842 -0.0509989 8.97901 0.0141216 8.62889C0.535085 5.97385 1.01987 3.31151 1.51913 0.641879C1.55531 0.444939 1.59148 0.247999 1.6349 0C2.73471 0 3.82729 0 4.9271 0C11.4174 0.0218822 17.9005 0.0364704 24.3909 0.0875289C28.0015 0.116705 31.612 0.255293 35.2298 0.262587C37.8274 0.269881 40.4322 0.16047 43.0298 0.094823C43.189 0.094823 43.3482 0.094823 43.5074 0.094823L43.6014 0.240705C43.464 0.35741 43.3337 0.547056 43.1745 0.576232C41.532 0.889877 41.0617 1.27646 40.7868 2.92492C40.6204 3.9388 40.5987 4.98915 40.5914 6.02491C40.548 10.8536 40.5263 15.6823 40.5335 20.5036C40.5335 20.9121 40.671 21.3789 40.8953 21.7218C42.9792 24.9384 47.7908 24.9384 49.9471 21.7218C51.0107 20.1462 51.5099 18.3519 51.6474 16.4846C51.7777 14.7851 51.756 13.0637 51.7343 11.3569C51.7125 9.31453 51.7343 7.27949 52.3059 5.2955C53.1741 2.30493 55.2291 0.568938 58.3114 0.299057C59.8598 0.167764 61.4155 0.0802348 62.9639 0.0729408C68.9839 0.0510585 74.9967 0.0364704 81.0168 0.0875289C83.3828 0.109411 85.7416 0.371998 88.0064 1.15976C91.9136 2.52375 93.9685 5.36115 94.077 9.53336C94.1205 11.1672 93.9975 12.7719 93.1943 14.2526C92.2392 16.0178 90.7487 17.1411 88.8674 17.6517C86.7835 18.2206 84.649 18.6218 82.5362 19.0886C81.7982 19.2491 81.0529 19.3877 80.1991 19.5627C80.3873 19.6357 80.4741 19.6867 80.5609 19.694C83.2598 19.9785 85.4233 21.3352 87.1381 23.3556C88.303 24.7269 89.3667 26.2222 90.2928 27.7758C92.3405 31.1968 94.5039 34.5302 97.0219 37.6155C97.7455 38.4981 98.5993 39.264 99.388 40.0882C99.6485 40.3581 99.9379 40.3581 100.278 40.2341C101.211 39.8913 101.703 39.1765 101.848 38.2428C101.986 37.3675 102.058 36.4704 102.058 35.5805C102.072 25.4344 102.072 15.2884 102.058 5.14232C102.058 4.41292 102.022 3.68351 101.899 2.96869C101.638 1.43693 100.9 0.773172 99.3735 0.59082C99.0913 0.55435 98.8019 0.55435 98.99 0.0583526C103.056 0.452233 107.152 0.43035 111.24 0.0583526C111.276 0.116705 111.319 0.167764 111.356 0.226116C111.233 0.342822 111.117 0.459527 110.987 0.568938C110.95 0.598114 110.885 0.583526 110.827 0.59082C109.199 0.78776 108.418 1.58281 108.266 3.23128C108.201 3.91692 108.165 4.60986 108.165 5.30279C108.165 15.2519 108.165 25.1937 108.165 35.1429C108.165 35.8358 108.201 36.5287 108.266 37.2144C108.476 39.3953 109.395 40.3071 111.58 40.4967C111.877 40.5259 112.086 40.5551 111.949 40.9416C111.537 40.9416 111.124 40.9416 110.712 40.9416C106.573 40.9198 102.441 40.8833 98.3026 40.8833C96.0234 40.8833 93.7514 40.9343 91.4722 40.9343C91.2841 40.9343 91.0164 40.7447 90.9151 40.5624C88.7806 37.032 86.6823 33.4871 84.5477 29.9568C83.419 28.0968 82.2613 26.2441 81.0529 24.4352C80.3149 23.3337 79.3309 22.4803 78.0719 21.9843C76.2991 21.2841 74.758 21.6561 73.5569 23.1441C72.2472 24.7707 71.6322 26.6963 71.5453 28.746C71.4441 31.2405 71.5092 33.7351 71.5309 36.2297C71.5309 36.9007 71.6032 37.5791 71.7335 38.2355C72.0157 39.636 72.7754 40.2925 74.1863 40.4311C74.483 40.4602 74.8014 40.4529 74.6422 40.8541L74.6494 40.8468ZM40.6059 22.1667C40.6059 25.0624 40.4395 27.7467 40.6421 30.409C40.9966 35.1356 44.5638 39.0817 49.1439 39.9715C53.384 40.7958 57.2767 39.7527 60.8367 37.3748C62.906 35.989 64.2808 34.0415 64.8018 31.5906C65.0912 30.2485 65.2504 28.8554 65.2576 27.4841C65.3227 19.942 65.33 12.4072 65.33 4.86515C65.33 4.11386 65.2287 3.33339 65.0333 2.60398C64.7005 1.37129 63.8539 0.671055 62.5877 0.663761C61.0754 0.649173 59.5415 0.656467 58.0509 0.875289C55.1929 1.29835 53.355 2.99057 52.6894 5.85714C52.4868 6.71784 52.342 7.61501 52.3131 8.4976C52.2552 10.4451 52.3276 12.3926 52.2842 14.3402C52.2407 16.419 52.0237 18.4832 51.2133 20.4307C50.5983 21.9041 49.73 23.2025 48.319 23.9975C45.9892 25.3031 42.6463 24.654 40.8881 22.6116C40.8013 22.5095 40.7434 22.3782 40.6059 22.1667ZM71.5526 25.4636C71.5526 25.4636 71.596 25.4782 71.6177 25.4855C71.6901 25.325 71.7624 25.1646 71.8203 24.9968C72.4498 23.2973 73.4628 21.9041 74.881 20.7808C76.7043 19.3366 78.8099 18.5124 80.9734 17.7684C82.2179 17.3453 83.4552 16.8566 84.5984 16.222C86.3566 15.2446 87.5143 13.7275 87.7893 11.6705C87.9123 10.7369 87.9919 9.78135 87.9485 8.84771C87.8182 5.89361 86.6171 3.51574 84.0123 1.98399C82.7388 1.2327 81.3424 0.809642 79.8952 0.75129C77.1747 0.634585 74.4468 0.649173 71.719 0.619996C71.6684 0.619996 71.6177 0.649173 71.5453 0.678349C71.5453 8.94254 71.5453 17.2067 71.5453 25.4636H71.5526Z" fill="white"/>
</svg>
